<?xml version="1.0" encoding="UTF-8" standalone="no"?>
<!-- Created with Inkscape (http://www.inkscape.org/) -->

<svg
   xmlns="http://www.w3.org/2000/svg"
   width="90mm"
   height="63mm"
   viewBox="0 0 30 63"
   version="1.1"
   id="svg8">
  <metadata
     id="metadata839">
  </metadata>
  <defs
     id="defs2" />
  <g
     id="g847"
     transform="matrix(14.66054,0,0,12.307603,-3688.1785,-2861.468)"
     style="fill:#ffffff;fill-opacity:1">
    <g
       id="g826"
       transform="translate(-1.9978662,-0.01835825)">
      <path
         id="path826"
         d="m 254.02487,237.56329 c 0.26361,-0.0165 0.79857,-0.0202 1.06218,-0.004 0.26361,0.0165 -0.0557,0.0338 -0.58289,0.0338 -0.52722,0 -0.7429,-0.0135 -0.47929,-0.0301 z m -0.10419,-0.27182 c 8.8e-4,-0.15189 0.0556,-0.16671 0.62515,-0.16671 0.56959,0 0.62668,0.0148 0.62516,0.16671 -0.002,0.24563 -0.0593,0.24565 -0.62886,0.24565 -0.56958,0 -0.62269,-0.002 -0.62145,-0.24565 z m -2.23389,-0.43344 c -0.072,-0.072 -0.10002,-0.63988 -0.10002,-2.02925 0,-1.76315 0.0131,-1.94111 0.15243,-2.06718 0.13515,-0.12231 0.45464,-0.13795 2.81811,-0.13795 2.16915,0 2.70073,-0.008 2.8324,0.0886 0.15032,0.1098 0.18189,-0.0862 0.18228,1.99607 2.9e-4,2.25353 0.0329,2.00106 -0.079,2.17184 l -0.12067,0.0682 -2.81175,0.01 c -2.04623,0 -2.8,-0.0262 -2.87379,-0.10003 z m 3.00381,-0.17443 c 0,-0.0661 -0.076,-0.14231 -0.14477,-0.14231 -0.12555,0 -0.20341,0.15622 -0.10379,0.25584 0.0778,0.0778 0.24856,0.0257 0.24856,-0.11353 z m 0.67618,-0.60828 c -0.12197,-0.18616 -0.17678,-0.20685 -0.39785,-0.1502 -0.49097,0.1258 -1.02335,0.0838 -1.272,-0.10049 -0.84822,-0.62847 -0.82394,-1.75533 0.0505,-2.34462 0.55613,-0.37478 1.33363,-0.19649 1.78177,0.40858 0.24604,0.3322 0.28165,0.96495 0.0769,1.36685 l -0.16672,0.32728 0.31473,0.35425 c 0.31456,0.35408 0.31501,0.35425 0.90771,0.35425 h 0.59299 v -1.53523 c 0,-0.84437 0.0185,-1.80522 0.0185,-1.80522 -0.168,0.007 -0.008,0.006 -2.7364,0.006 h -2.61673 v 1.66708 1.66708 h 1.79403 1.79403 z m -0.43803,-0.4133 c 0.35691,-0.18456 0.57497,-0.5863 0.57534,-1.05994 5.9e-4,-0.75025 -0.74039,-1.26086 -1.46844,-1.0119 -0.85416,0.29208 -1.02174,1.32649 -0.31537,1.94669 0.33358,0.29288 0.79226,0.34039 1.20847,0.12515 z"
         style="fill:#ffffff;fill-opacity:1;stroke-width:0.08335395"/>
      <text
         transform="matrix(0.74894617,-0.51712728,0.48169375,1.0026128,0,0)"
         id="text830"
         y="307.61847"
         x="140.95332"
         style="font-style:normal;font-weight:normal;font-size:1.13692749px;line-height:1.25;font-family:sans-serif;letter-spacing:0px;word-spacing:0px;fill:#ffffff;fill-opacity:1;stroke:none;stroke-width:0.07105797"
         xml:space="preserve"><tspan
           id="tspan4558"
           style="font-size:0.73535585px">MdSV</tspan></text>
    </g>
  </g>
</svg>
